<svg xmlns="http://www.w3.org/2000/svg" xmlns:xlink="http://www.w3.org/1999/xlink" x="0px" y="0px"
	 viewBox="0 0 75 72" style="enable-background:new 0 0 75 72;" xml:space="preserve">
<style type="text/css">
	.st0{fill:#81B3D2;}
</style>
<g>
	<path class="st0" d="M30.4,63.8h14.5V42.2H30.4C30.4,42.2,30.4,63.8,30.4,63.8z M33.1,44.9h9.2v16.3h-9.2
		C33.1,61.2,33.1,44.9,33.1,44.9z"/>
	<path class="st0" d="M69.5,40.5l1.9-1.9l-9-8.9V4.9H49.9v12.3L37.5,4.9L3.6,38.6l1.9,1.9l7.1-7.1v34.1H9v2.7H67v-2.7h-4.6V33.4
		L69.5,40.5z M59.7,67.5H15.3V30.7L37.5,8.6l22.2,22.1C59.7,30.7,59.7,67.5,59.7,67.5z M59.7,27l-7.2-7.2V7.5h7.2
		C59.7,7.5,59.7,27,59.7,27z"/>
	<path class="st0" d="M30.6,29.4c0,3.9,3.1,7,7,7c3.9,0,7-3.1,7-7c0-3.9-3.1-7-7-7C33.8,22.4,30.6,25.5,30.6,29.4z M37.6,24.9
		c2.5,0,4.5,2,4.5,4.5c0,2.5-2,4.5-4.5,4.5c-2.5,0-4.5-2-4.5-4.5C33.1,26.9,35.2,24.9,37.6,24.9z M19,42.2h2.7v3.6H19V42.2z
		 M24.4,42.2h2.7v3.6h-2.7V42.2z M19,47.6h2.7v3.6H19V47.6z M24.4,47.6h2.7v3.6h-2.7V47.6z M47.9,42.2h2.7v3.6h-2.7V42.2z
		 M53.3,42.2H56v3.6h-2.7V42.2z M47.9,47.6h2.7v3.6h-2.7V47.6z M53.3,47.6H56v3.6h-2.7V47.6z"/>
</g>
</svg>
