<svg xmlns="http://www.w3.org/2000/svg" xmlns:xlink="http://www.w3.org/1999/xlink" x="0px" y="0px"
	 viewBox="0 0 74 70" style="enable-background:new 0 0 74 70;" xml:space="preserve">
<style type="text/css">
	.st0{fill:#81B3D2;}
</style>
<g>
	<path class="st0" d="M68.2,48.4H6.8c-2.1,0-3.9,1.8-3.9,4v3.3c0,2.2,1.7,4,3.9,4h0.9v1c0,5.2,4.1,9.4,9,9.4h41.7c5,0,9-4.2,9-9.4
		v-1h0.9c2.1,0,3.9-1.8,3.9-4v-3.3C72.1,50.3,70.3,48.4,68.2,48.4z M64.6,60.8c0,3.6-2.8,6.6-6.3,6.6H16.7c-3.5,0-6.3-2.9-6.3-6.6
		v-1h54.2L64.6,60.8L64.6,60.8z M69.3,55.7c0,0.6-0.5,1.2-1.1,1.2H6.8c-0.6,0-1.1-0.5-1.1-1.2v-3.3c0-0.6,0.5-1.2,1.1-1.2h61.4
		c0.6,0,1.1,0.5,1.1,1.2C69.3,52.5,69.3,55.7,69.3,55.7z M17.6,40.7l5,3.8l5-3.8l5,3.8l5-3.8l5,3.8l5-3.8l5,3.8l5-3.8l5,3.8l5.8-4.4
		l-1.6-2.3L62.4,41l-5-3.8l-5,3.8l-5-3.8l-5,3.8l-5-3.8l-5,3.8l-5-3.8l-5,3.8l-5-3.8l-5,3.8l-4.2-3.2l-1.6,2.3l5.8,4.4L17.6,40.7z
		 M10.5,34.3h56.8c0-0.6,0.1-1.2,0.1-1.7c0-0.4,0-0.7,0-1.1C66.7,16.7,53.6,4.9,37.5,4.9C21.4,4.9,8.3,16.7,7.7,31.5
		c0,0.4,0,0.7,0,1.1c0,0.6,0,1.2,0.1,1.7H10.5z M37.5,7.7c14.6,0,26.5,10.6,27.1,23.8H10.4C11,18.3,22.9,7.7,37.5,7.7z"/>
	<ellipse class="st0" cx="37.5" cy="19.1" rx="1.8" ry="1.9"/>
	<ellipse class="st0" cx="30.2" cy="14.4" rx="1.8" ry="1.9"/>
	<ellipse class="st0" cx="44.8" cy="14.4" rx="1.8" ry="1.9"/>
</g>
</svg>
