<svg xmlns="http://www.w3.org/2000/svg" xmlns:xlink="http://www.w3.org/1999/xlink" x="0px" y="0px"
	 viewBox="0 0 64 76" xml:space="preserve">
<style type="text/css">
	.st0{fill:#81B3D2;}
</style>
<path class="st0" d="M56.8,24.3H35.7c11.8-5.9,12.7-9.6,12.3-11.7c-1-3.4-4.9-6-8.5-4.6c-4.8,1.8-6.1,8.9-7.4,14
	c-1.6-5.2-3.2-11.8-6.9-15.1c-1.1-1-2.6-1.9-4.9-1.7c-3.4,0.3-8.4,4.6-6.4,9.4c1.9,4.6,8.3,7.5,12.4,9.8H7.1c-1.4,0-2.5,1.1-2.5,2.4
	v9.7c0,1.4,1.1,2.4,2.5,2.4h0.2V70h49.4V38.8h0.1c1.4,0,2.5-1.1,2.5-2.4v-9.7C59.3,25.4,58.2,24.3,56.8,24.3z M40.9,10.1
	c1.8-0.3,4.3,1.1,4.5,2.7c0.3,2.4-2.9,4.5-4.3,5.5c-2.2,1.5-4.2,2.3-6.2,3.5C35.5,18.7,37,10.7,40.9,10.1z M21.3,18.7
	c-1.9-1.3-5.6-3.8-5.5-6.6c0.1-3.1,4.9-5.6,7.5-3.3c3.3,2.9,4.9,9.5,6.1,14.1C26.6,21.5,24,20.5,21.3,18.7z M26.4,67.4H9.8V38.8
	h16.6V67.4L26.4,67.4z M26.4,36.2H7.2v-9.4h19.2C26.4,26.9,26.4,36.2,26.4,36.2z M35,36.2v31.1h-6.1V26.9H35V36.2z M54.2,67.4H37.7
	V38.8h16.5V67.4z M56.7,36.2h-19v-9.4h19C56.7,26.9,56.7,36.2,56.7,36.2z"/>
</svg>